<?xml version="1.0" encoding="UTF-8"?>
<svg width="300" height="300.251" version="1.1" xmlns="http://www.w3.org/2000/svg">
 <path d="M178.57 127.15 290.27 0h-26.46l-97.03 110.38L89.34 0H0l117.13 166.93L0 300.25h26.46l102.4-116.59 81.8 116.59h89.34M36.01 19.54H76.66l187.13 262.13h-40.66"/>
</svg>

<svg width="396" height="396" viewBox="0 0 396 396" fill="none" xmlns="http://www.w3.org/2000/svg">
<path d="M301.026 37.125H355.608L236.362 173.415L376.645 358.875H266.805L180.774 246.395L82.335 358.875H27.72L155.265 213.098L20.691 37.125H133.32L211.084 139.937L301.026 37.125ZM281.869 326.205H312.114L116.886 68.079H84.4305L281.869 326.205Z" fill="white"/>
</svg>

